<?xml version="1.0" standalone="no"?><!DOCTYPE svg PUBLIC "-//W3C//DTD SVG 1.1//EN" "http://www.w3.org/Graphics/SVG/1.1/DTD/svg11.dtd"><svg t="1680617252361" class="icon" viewBox="0 0 1024 1024" version="1.1" xmlns="http://www.w3.org/2000/svg" p-id="846" xmlns:xlink="http://www.w3.org/1999/xlink" width="200" height="200"><path d="M1023.2832 647.236267a15.428267 15.428267 0 0 0-4.778667-8.738134L779.946667 399.940267c-6.826667-6.826667-17.066667-6.826667-23.893334 0-6.826667 6.826667-6.826667 17.066667 0 23.893333l210.500267 210.500267H529.066667c-273.066667 0-494.933333-221.866667-494.933334-494.933334 0-10.24-6.826667-17.066667-17.066666-17.066666s-17.066667 6.792533-17.066667 17.032533c0 290.133333 238.933333 529.066667 529.066667 529.066667h432.913066l-205.9264 205.9264c-6.826667 6.826667-6.826667 17.066667 0 23.893333 3.413333 3.413333 10.24 3.413333 13.653334 3.413333h10.24l235.383466-235.383466a15.906133 15.906133 0 0 0 8.669867-14.916267l-0.068267-0.3072c0.034133-1.297067-0.375467-2.525867-0.648533-3.822933z" fill="#333333" p-id="847"></path></svg>